<?xml version="1.0" encoding="UTF-8"?>
<svg width="96" height="33.8" version="1.1" viewBox="0 0 25.4 8.95" xmlns="http://www.w3.org/2000/svg" xmlns:cc="http://creativecommons.org/ns#" xmlns:dc="http://purl.org/dc/elements/1.1/" xmlns:rdf="http://www.w3.org/1999/02/22-rdf-syntax-ns#">
<title>RSA Security logo</title>
 <metadata>
  <rdf:RDF>
   <cc:Work rdf:about="">
    <dc:format>image/svg+xml</dc:format>
    <dc:type rdf:resource="http://purl.org/dc/dcmitype/StillImage"/>
    <dc:title/>
   </cc:Work>
  </rdf:RDF>
 </metadata>
<desc>A cybersecurity company based in Massachusetts, United States</desc>
 <g transform="translate(-60.76 -176)">
  <g transform="matrix(.3497 0 0 -.3465 86.09 184.6)">
   <path d="m-37.49 14.06c-4.081 1.108-5.674 2.042-5.674 3.932 0 2.864 3.651 3.141 4.96 3.141 2.057 0 4.673-0.6603 6.221-1.428l1.641 3.098c-2.091 1.036-5.293 1.731-7.971 1.731-5.699 0-9.267-2.492-9.267-6.75 0-4.865 5.032-6.24 8.944-7.297 4.074-1.107 5.496-2.353 5.496-4.243 0-3.151-3.33-3.642-5.391-3.642-2.83 0-5.166 0.7588-7.449 2.112l-1.948-3.169c2.88-1.705 5.868-2.5 9.397-2.5 5.894 0 9.81 2.93 9.81 7.465 0 5.064-4.764 6.466-8.769 7.552" style="fill:#be3a34"/>
   <path d="m-52.84 16.86c-0.062 4.381-3.55 7.439-8.485 7.439h-10.67v-25.09h3.886v21.42h6.562c2.198 0 4.561-1.127 4.6-3.829 0.034-2.403-1.789-3.907-4.879-4.036l-0.06-0.0041-2.353-0.02064 7.835-13.57 4.591 0.009287s-3.77 6.564-6.135 10.68c3.482 1.281 5.148 4.113 5.108 6.998" style="fill:#be3a34"/>
   <path d="m0-0.7403-4.751-0.009378-8.611 19.76-8.251-19.76h-4.78l10.84 25.2 4.458 0.0031z" style="fill:#be3a34"/>
  </g>
 </g>
</svg>
